<?xml version="1.0" encoding="UTF-8"?> <svg xmlns="http://www.w3.org/2000/svg" width="284.502" height="194.89" viewBox="0 0 284.502 194.89"><g id="Group_32" data-name="Group 32" transform="translate(-218.624 -263.154)" opacity="0.726"><path id="Path_50" data-name="Path 50" d="M466.087,288.618h0c-6.28-1.448-9.4-8.261-6.97-15.218a15.9,15.9,0,0,1,6.917-8.426h0c6.268-3.641,13.344-1.647,15.8,4.454a12,12,0,0,1,.843,4.494h0c0,7.009-5.459,13.633-12.192,14.793A11.142,11.142,0,0,1,466.087,288.618Zm18.743,79.706V295.876l-26.5,18.458v69.46c0,12.661,9.861,21.226,22.021,19.129,7.582-1.306,14.63-6.581,18.657-13.962l2.637-4.837C492.188,385.093,484.84,378.186,484.83,368.324Z" transform="translate(1.483 0)" fill="#d89700"></path><path id="Path_30" data-name="Path 30" d="M405.8,399.044c-8.019,6.454-17.053,8.041-23.18,5.069-4.955-2.406-7.686-7.515-7.686-14.385V316.15l-26.5,18.461v64.682c.019,9.564,4.37,17.813,11.739,22.26,11.685,7.026,31.049.367,39.291-9.817,4.017-4.965,5.625-7.618,6.271-8.974l.676-1.421.535,1.28c4.566,10.933,17.394,14.37,28.651,7.677a28.584,28.584,0,0,0,10.374-10.853l2.639-4.839c-9.455.967-16.8-5.94-16.813-15.8V306.357l-26.5,18.458v69.466A22.537,22.537,0,0,0,405.8,399.044Z" transform="translate(0.803 0.267)" fill="#d89700"></path><path id="Path_51" data-name="Path 51" d="M311.692,311.638l-43.907-15.291-18.044,17.369c-19.416,18.781-31.051,45.192-31.117,70.644-.1,30.908,17.024,56.75,43.629,65.836l22.071,7.643c30.99-30.993,48.792-72.3,48.9-113.617C333.281,328.714,325.028,316.229,311.692,311.638ZM300.29,421.81l-3.576.616c-24.784,4.241-44.968-13.3-45-39.091v-60.5l3.576-.616c24.786-4.243,44.97,13.294,45,39.091Z" transform="translate(0 0.205)" fill="#d89700"></path></g></svg> 