<?xml version="1.0" encoding="UTF-8"?> <svg xmlns="http://www.w3.org/2000/svg" width="616.645" height="818.908" viewBox="0 0 616.645 818.908"><g id="join_the_movement_logo" transform="translate(-442.408 -5547.046)"><path id="Path_52" data-name="Path 52" d="M680.228,662.119a394.545,394.545,0,0,1-9.334-56.476l-.368-4.027L687.938,615.4A751.446,751.446,0,0,0,663.22,450.018l-.518-1.94,2-.226a25.7,25.7,0,0,1,16.591,4.073c-10.673-38.964-26.01-82.437-56.775-116.145-28.167-30.826-77.422-56.237-123.96-43.427a32.967,32.967,0,0,0-11.184,5.147c-12.406,8.832-9.385,24.6-6.186,41.292,1.01,5.285,1.858,10.763,2.554,15.926.652,4.84,12.194,12.491,19.644,13.969,4.823.937,10.016.864,15.043.774a65.816,65.816,0,0,0,8.46-.526,59.072,59.072,0,0,0,12.294-3.739c5.478-2.1,10.656-8.251,13.682-13.317l2.907-4.859.314,5.658c.73,12.954-6.266,21.421-21.39,25.869-9.173,2.683-22.7,3.732-33.073,2.568l-.431-.049a63.443,63.443,0,0,1-16.316-3.781c.47,88.47-46.1,185.789-122.2,255.3,12.35,3.734,34.869,3.924,48.727,4.073l8.942.1-4.2,3.063A228.973,228.973,0,0,0,330.64,769.376L371.4,742.857l-1.6,4.733c-15.965,47.373-17.1,100.041-3.3,148.962a62.714,62.714,0,0,1,32.9-35.29l2.668-1.217-.219,2.924c-2.142,28.1,9.229,56.327,19.267,81.215,11.191,27.763,23.25,53.737,47.2,66.537,10.283-55.258,51.6-103.839,105.85-124.22,1.967-.75,3.988-1.478,6.021-2.206,13.984-5.052,28.45-10.281,34.826-22.327,8.421-15.953-1.546-35.755-12.411-53.026l-.7-1.1.862-.984c16.007-18.118,37.374-18.41,60-18.738,17.9-.246,36.391-.5,53.654-9.611,25.156-13.271,31.507-25.974,35.714-34.387,1.568-3.14,2.922-5.843,4.9-7.778-29.7-7.929-49.927-19.958-61.778-36.722C687.271,688.295,683.312,674.9,680.228,662.119Zm-145.388-317.5a10.559,10.559,0,0,1-6.113,6.371,20.76,20.76,0,0,1-10.135,1.047,35.145,35.145,0,0,1-10.907-3.094c-8.5-4.092-13.465-14.12-11.306-22.845,1.921-7.742,9.826-13.736,19.22-14.566,8.82-.757,16.292,3.206,19.5,10.4C537.739,327.9,537.023,338.357,534.839,344.624ZM522.292,459.177a120.673,120.673,0,0,0,13.879,8l-2.4-29,3.287,3.07c9.443,8.852,9.818,34.582,9.833,35.663l.012.806-.611.531a7.966,7.966,0,0,1-6.023,1.483c-.114-.012-.234-.039-.348-.054-6.2-.886-12.939-6.992-20.038-18.12l-4.324-6.763ZM431.3,657.143l3.362.816c-2.04,14.729-.742,24.333,3.861,28.562,4.187,3.856,10.5,2.42,14.288,1.548,2.442-.545,3.91-.857,4.85.326a2.21,2.21,0,0,1,.085,2.508l-.158.256c-10.451,13.855-17.682,17.042-22.419,16.511a8.164,8.164,0,0,1-2.995-.935C423.28,701.982,422.918,681.128,431.3,657.143Zm17.784,130.65c-7.067,18.833-14.071,22.458-18.931,21.913-.256-.029-.511-.071-.76-.112-9.792-2.028-16.25-22.624-15.016-47.928l3.445-.173c2.232,14.965,6.242,24,11.922,26.848,5.027,2.515,10.595-.465,13.916-2.249,2.174-1.147,3.467-1.889,4.721-.957a2.208,2.208,0,0,1,.784,2.366Zm25.484-225.2-.129-14.305,3.542,13.869c2.719,10.609,6.658,17.166,11.715,19.493,5.307,2.452,10.924-.358,14.261-2,2.089-1.035,3.34-1.658,4.511-.789a2.118,2.118,0,0,1,.789,2.15l-.095.358c-6.3,16.258-13.495,18.276-17.577,17.818-.217-.024-.419-.046-.611-.083C481.64,597.4,474.736,582.048,474.566,562.592ZM495.636,893.92a8.83,8.83,0,0,1-4.051.419c-9.565-1.071-23.461-14.86-34.412-34.843l2.858-1.945q15.1,18.4,24.783,17.684c5.329-.426,8.333-5.6,10.128-8.7,1.166-2.013,1.938-3.345,3.459-3.216a2.53,2.53,0,0,1,1.933,1.621l.078.27C504.661,885.938,500.164,892.257,495.636,893.92ZM524.424,721.1c-4.148,16.842-8.835,24.739-14.329,24.123l-.107-.012c-9.185-1.222-13.436-27.332-12.886-52.507l3.464-.156c2.551,22.519,7.063,28.907,10.4,30.292,3.011,1.373,6.3-1.341,8.47-3.05,1.558-1.232,2.683-2.128,4.012-1.378a2.25,2.25,0,0,1,1.018,2.476ZM566.2,617.229l-.292,1.263-1.29.073a6.234,6.234,0,0,1-1.005-.044c-3.72-.419-16.562-4.192-23.4-35.875l-1.787-8.294,4.9,6.924c6.252,8.81,12.17,16.394,15.33,20.352l6.814-38.355,2.325,4.944C574.368,582.153,566.541,615.805,566.2,617.229Zm73.568-70.954-.372,1.855-1.811-.516c-.913-.253-22.451-6.819-30.456-49.235l-1.784-9.414,4.966,8.187c6.958,11.466,17.078,25.146,21.726,31.291l6.612-45.557,2.417,5.935C647.669,505.082,640.095,544.606,639.771,546.276ZM615.36,419.523c7.148,6.985,13.8,12.918,17.477,16.141l-1.351-37.6,3.355,4.635c8.625,11.941,8.148,45.162,8.114,46.565l-.024,1.307-1.254.338a8.307,8.307,0,0,1-2.9.11c-4.988-.558-15.622-4.932-26.22-29.569l-3.479-8.046ZM585.8,731.5l-.146.706-.6.385a7.241,7.241,0,0,1-4.562.879,10.035,10.035,0,0,1-2.206-.519c-6.147-2.274-11.484-10.79-15.849-25.294l-2.3-7.63,5.266,5.982a119.451,119.451,0,0,0,12.109,12.277l5.083-34.124,2.5,4.156C592.357,700.458,586.083,730.232,585.8,731.5Zm64.149-65.581c-.148-.017-.679-.036-1.529-.131-6.632-.743-32.559-5.9-48.656-41.516l-3.15-6.948,5.85,4.9c12.4,10.424,30.3,22.519,36.907,26.9L641,603.082l2.926,3.591c11.973,14.7,7.978,55.928,7.807,57.683l-.166,1.6ZM834.463,281.553c-19.683.127-39.38.648-58.564,1.553a5.992,5.992,0,0,1-6.281-5.441c-.582-10.274,5.933-19.561,12.219-28.52,5.526-7.883,10.741-15.325,11.406-23.193a5.011,5.011,0,0,0-1.519-3.978,5.55,5.55,0,0,0-4.185-1.522c-32.7,3.116-63.246,14.719-94.269,27.359a7.42,7.42,0,0,1-6.846-.66,7.01,7.01,0,0,1-3.269-5.663c-.365-10-.986-27.23-1.344-37.426a4.608,4.608,0,0,0-2.086-3.674,5.375,5.375,0,0,0-4.623-.64c-11.035,3.854-21.1,10.709-30.826,17.343-2.513,1.711-5.025,3.423-7.544,5.078-17.609,11.578-32.182,16.535-45.834,15.605-.2-.024-.392-.032-.582-.051a15.16,15.16,0,0,1-10.678-6.412c-8.589-12.443-9.765-23.561-3.613-34-.631-.1-1.268-.183-1.909-.256a46.467,46.467,0,0,0-34.589,10.072,87.928,87.928,0,0,0-8.2,8.129c-1.972,2.14-4.015,4.341-6.2,6.388a65.519,65.519,0,0,1-27.208,15.087,14.971,14.971,0,0,1-18.047-9.271c-3.457-10.188-2.987-21.273-2.542-31.977l.132-3.126c-.251-.438-.448-.582-.723-.545-9.5,1.283-32.33,13.641-34.251,15.062a79.192,79.192,0,0,0-24.866,30.3,52.527,52.527,0,0,0-4.869,19.627l-.141,2.644-2.371-1.178a85.936,85.936,0,0,0-20.593-7.51c-23.279-4.932-69.758-2.992-92.857,13.348-7.243,5.137-11.712,11.337-13.3,18.463,21.626-3.528,46.38,1.5,70.05,14.312,21.784,11.793,40.133,28.194,58.562,45.372,8.409,7.849,16.445,15.656,22.38,24.81l5.909,9.127-8.46-6.831a247.378,247.378,0,0,0-25.935-18.85q-22.564-13.917-43.6-16.014c13.672,9.163,25.458,27.055,32.462,42.2l1.264,2.722-3-.268c-22.592-2.057-77.242-10.819-104.71-47.5-.618,28.457,25.017,59.762,50.849,73.566,16.489,8.81,33.078,11.871,50.65,15.1,11.693,2.157,23.795,4.387,36.067,8.467l10.6,3.4-9.268.558c-1.8.112-3.727.251-5.721.4-7.267.536-15.462,1.132-21.665.519-28.82,31.627-75.491,30.117-116.715,28.8-16.625-.54-33.63-.183-42.918,10.527-7,8.061-7.23,19.99-6.792,28.257,1.573,30.2,13.526,60.166,33.655,84.358a12.383,12.383,0,0,0,15.16,2.887l6.369-3.464.8,1.607c9.419,18.867,35.787,24.649,54.805,19.25,21.051-6.006,36.7-22.064,49.228-36.968,60.69-72.234,89.147-164.149,78.06-252.171-1.117-8.835-2.649-20.922,4.757-28.471,4.1-4.165,10.018-5.918,15.269-7.089,27.751-6.169,59.762-2.32,90.125,10.816,25.148,10.875,49.635,27.912,74.854,52.059,2.194,2.1,4.382,4.243,6.559,6.371,8.942,8.757,18.205,17.806,28.837,24.732,8.664,5.626,25.893,14.478,43.977,10.595,10.125-2.167,18.816-7.988,27.561-14.283a681.106,681.106,0,0,0,82.539-69.878,12.561,12.561,0,0,0,3.189-13.346C846.794,281.981,841.1,281.533,834.463,281.553ZM395.5,272.9a57.93,57.93,0,0,1-9.18,2.4,9.353,9.353,0,0,1-2.42.029,9.94,9.94,0,0,1-6.279-3.092,5.873,5.873,0,0,1-1.541-4.582,5.728,5.728,0,0,1,2.515-3.99,9.353,9.353,0,0,1,5.685-1.519,18.719,18.719,0,0,1,5.263.974c2.469.794,7.876,3.829,8.207,6.337a3.126,3.126,0,0,1-1.229,2.88,3.493,3.493,0,0,1-.689.414ZM281.76,528.835c-3.272,7.508,2.469,26.836,4.959,33.655l2,5.478-4.665-3.5c-.346-.258-8.5-6.617-11.508-32.532-2.522-21.74,23.968-32.131,57.5-45.282,8.4-3.289,27.454-7.362,27.454-7.362C356.823,479.6,289.982,509.924,281.76,528.835ZM527.582,331.088a6.288,6.288,0,0,1-.241,5,6.611,6.611,0,0,1-4.109,3.06,7.369,7.369,0,0,1-5.77-.635,8.55,8.55,0,0,1-3.474-4.073,6.056,6.056,0,0,1,0-5.407c.947-1.573,3.084-2.6,5.577-2.69a13.433,13.433,0,0,1,1.972.071,18.628,18.628,0,0,1,2.254.4l-.01.012A7.164,7.164,0,0,1,527.582,331.088Z" transform="translate(209.054 5355.234)" fill="#fff" opacity="0.257"></path><path id="Path_92" data-name="Path 92" d="M13.453-22.382v1.361q.16,6.847,1.5,9.629T20.7-8.608q4.364,0,5.766-3.043a15.666,15.666,0,0,0,.841-6.086v-41.28H39.639v41.08q0,7.527-2.6,11.932-4.4,7.447-15.9,7.447T5.726-4.584Q1.8-10.61,1.8-21.021v-1.361Zm72.7,13.573a14.087,14.087,0,0,0,11.631-5.405q4.3-5.405,4.3-15.375,0-9.93-4.3-15.355a14.066,14.066,0,0,0-11.631-5.425,14.255,14.255,0,0,0-11.691,5.405Q70.1-39.559,70.1-29.589t4.364,15.375A14.255,14.255,0,0,0,86.156-8.809Zm28.268-20.78q0,15.9-8.929,24.344Q98.808,1.642,86.156,1.642T66.817-5.245q-8.969-8.448-8.969-24.344,0-16.216,8.969-24.344,6.687-6.887,19.339-6.887t19.339,6.887Q114.424-45.8,114.424-29.589ZM143.324,0H131.072V-59.018h12.252Zm19.491-59.018h12.933l23.5,41.2v-41.2h11.491V0H198.41l-24.1-41.921V0H162.815Zm141.482,0v10.45H286.64V0H274.228V-48.567H256.49v-10.45ZM319.624,0V-59.018h12.212v22.5H354.9v-22.5H367.15V0H354.9V-26.346H331.836V0Zm111.14-48.567h-31.23v12.532H428.2v10.25H399.534V-10.61h32.672V0H387.482V-59.018h43.282Z" transform="translate(491 5847)"></path><path id="Path_93" data-name="Path 93" d="M45.364-59.018H63.1V0H51.61V-39.919q0-1.722.04-4.825t.04-4.785L40.52,0H28.548L17.457-49.528q0,1.682.04,4.785t.04,4.825V0H6.046V-59.018H23.983l10.73,46.405ZM108.858-8.809a14.087,14.087,0,0,0,11.631-5.405q4.3-5.405,4.3-15.375,0-9.93-4.3-15.355a14.066,14.066,0,0,0-11.631-5.425,14.255,14.255,0,0,0-11.691,5.405Q92.8-39.559,92.8-29.589t4.364,15.375A14.255,14.255,0,0,0,108.858-8.809Zm28.268-20.78q0,15.9-8.929,24.344-6.687,6.887-19.339,6.887T89.519-5.245q-8.969-8.448-8.969-24.344,0-16.216,8.969-24.344,6.687-6.887,19.339-6.887T128.2-53.933Q137.126-45.8,137.126-29.589Zm52.163-29.429H202.1L181.962,0H170.31L150.371-59.018h13.173l12.813,44.8Zm71.982,10.45H230.04v12.532h28.668v10.25H230.04V-10.61h32.672V0H217.989V-59.018h43.282Zm53.636,21.261h62.661v8.729H314.907Z" transform="translate(491 6003)"></path><path id="Path_94" data-name="Path 94" d="M45.917-59.737H63.871V0H52.24V-40.406q0-1.743.041-4.884t.041-4.843L41.014,0H28.9L17.67-50.132q0,1.7.041,4.843t.041,4.884V0H6.12V-59.737H24.276L35.137-12.766ZM127.937-49.16H96.325v12.685h29.018V-26.1H96.325v15.36H129.4V0H84.127V-59.737h43.81ZM147.22-59.737h13.09l23.79,41.7v-41.7h11.631V0H183.248l-24.4-42.432V0H147.22Zm111.847,0V-49.16H241.194V0H228.631V-49.16H210.677V-59.737Z" transform="translate(690 6160)"></path></g></svg> 